<svg width="378" height="378" viewBox="0 0 378 378" fill="none" xmlns="http://www.w3.org/2000/svg">
<rect width="378" height="378" fill="black"/>
<path d="M259.705 265L218.507 265L218.504 191.892L210.578 191.892C203.341 191.892 196.4 196.422 191.283 204.485L156.277 252.407C151.16 260.47 144.219 265 136.982 265L103.003 265L103 186.108L118.145 186.108C125.382 186.108 132.322 181.579 137.44 173.516L172.45 125.593C177.567 117.53 184.507 113.001 191.744 113.001L225.72 113L225.723 186.108L279 186.108L279 239.761C279 248.02 277.256 256.95 270.415 261.55C267.061 263.805 263.422 265 259.705 265Z" fill="white"/>
</svg>
